<?xml version="1.0" standalone="no"?>
<!DOCTYPE svg PUBLIC "-//W3C//DTD SVG 20010904//EN"
 "http://www.w3.org/TR/2001/REC-SVG-20010904/DTD/svg10.dtd">
<svg version="1.0" xmlns="http://www.w3.org/2000/svg"
 width="588.000000pt" height="200.000000pt" viewBox="0 0 588.000000 200.000000"
 preserveAspectRatio="xMidYMid meet">

<g transform="translate(0.000000,200.000000) scale(0.100000,-0.100000)"
fill="#000000" stroke="none">
<path d="M0 1000 l0 -1000 2940 0 2940 0 0 1000 0 1000 -2940 0 -2940 0 0
-1000z m1920 577 c151 -151 332 -330 402 -398 70 -69 132 -137 138 -153 24
-65 15 -76 -397 -487 -214 -213 -398 -392 -410 -398 -12 -6 -39 -11 -60 -11
-36 0 -51 14 -445 408 -403 402 -408 408 -408 448 0 50 20 78 131 186 46 44
159 155 252 247 l167 165 98 -97 97 -97 -3 -50 c-4 -48 -2 -53 37 -91 l41 -41
0 -228 0 -228 -41 -41 c-40 -40 -41 -43 -37 -96 3 -40 11 -62 28 -80 95 -101
260 -3 215 129 -8 22 -26 49 -40 59 l-25 19 0 236 0 237 89 -89 c89 -89 90
-90 89 -138 -2 -57 20 -93 73 -122 48 -26 102 -15 146 29 28 28 33 40 33 83 0
78 -61 137 -136 130 -31 -2 -42 6 -128 91 -91 91 -94 95 -93 138 1 74 -70 140
-139 129 -28 -4 -40 5 -130 95 l-99 100 96 94 c92 91 98 95 140 95 l43 0 276
-273z m2152 235 c29 -28 33 -39 36 -102 l4 -70 -40 -40 c-38 -38 -43 -40 -101
-40 -101 0 -147 37 -158 128 -7 61 15 115 59 142 27 17 46 20 101 18 60 -3 71
-7 99 -36z m508 -237 l0 -124 123 -3 122 -3 3 -82 3 -83 -126 0 -126 0 3 -234
c3 -234 3 -234 28 -261 24 -25 29 -27 100 -22 41 3 85 8 96 12 20 6 24 0 43
-65 12 -40 20 -74 17 -77 -2 -3 -35 -16 -73 -30 -91 -34 -235 -43 -315 -19
-68 19 -120 73 -137 141 -7 26 -11 146 -11 299 l0 256 -65 0 -65 0 0 74 0 74
38 7 c91 17 141 69 167 175 9 36 18 71 20 78 3 8 28 12 80 12 l75 0 0 -125z
m-1090 -161 l185 -6 0 -66 c0 -66 0 -67 -30 -73 -16 -4 -49 -7 -72 -8 -24 0
-43 -2 -43 -3 0 -2 11 -25 25 -52 28 -56 33 -140 13 -210 -18 -60 -99 -138
-170 -164 -68 -25 -186 -37 -250 -24 l-48 9 -24 -41 -24 -41 186 -12 c280 -19
363 -48 404 -140 30 -69 23 -173 -17 -239 -38 -61 -105 -107 -199 -136 -60
-19 -94 -23 -226 -23 -160 0 -232 11 -300 45 -114 58 -138 176 -56 283 32 42
33 44 14 56 -11 7 -26 28 -35 48 -24 59 -11 95 68 178 62 65 68 74 50 80 -34
10 -87 82 -106 141 -46 145 20 306 150 369 69 34 130 44 235 39 47 -2 168 -6
270 -10z m620 -339 l0 -355 23 -5 c12 -2 36 -6 52 -7 30 -3 30 -4 33 -71 l3
-67 -236 0 -236 0 3 68 3 67 40 3 c22 2 45 8 52 14 10 8 13 71 13 262 0 138
-4 256 -8 262 -4 5 -29 18 -55 28 l-49 18 7 62 c4 33 9 64 12 69 2 4 80 7 174
7 l169 0 0 -355z"/>
<path d="M3130 1243 c-48 -25 -72 -74 -67 -140 2 -33 11 -61 23 -74 63 -71
207 -62 256 15 15 24 18 44 15 89 -3 49 -8 63 -35 89 -27 28 -39 32 -94 36
-47 2 -72 -2 -98 -15z"/>
<path d="M3017 487 c-62 -95 5 -147 186 -147 136 1 207 32 207 92 0 40 -38 54
-165 62 -55 4 -125 9 -156 12 -51 5 -57 4 -72 -19z"/>
</g>
</svg>
